<?xml version="1.0" standalone="no"?>
<!DOCTYPE svg PUBLIC "-//W3C//DTD SVG 20010904//EN"
 "http://www.w3.org/TR/2001/REC-SVG-20010904/DTD/svg10.dtd">
<svg version="1.0" xmlns="http://www.w3.org/2000/svg"
 width="1024.000000pt" height="1024.000000pt" viewBox="0 0 1024.000000 1024.000000"
 preserveAspectRatio="xMidYMid meet">

<g transform="translate(0.000000,1024.000000) scale(0.100000,-0.100000)"
fill="#000000" stroke="none">
<path d="M5145 8205 c-33 -8 -78 -14 -100 -15 -22 0 -56 -5 -75 -11 -19 -6
-69 -14 -110 -19 -77 -8 -164 -24 -235 -41 -52 -13 -135 -34 -207 -52 -82 -21
-227 -67 -266 -83 -18 -8 -39 -14 -46 -14 -8 0 -41 -13 -74 -30 -34 -16 -64
-30 -68 -30 -7 0 -151 -67 -174 -81 -8 -5 -22 -12 -30 -16 -8 -4 -58 -32 -110
-62 -92 -52 -136 -81 -284 -187 -38 -27 -87 -62 -109 -78 -187 -131 -418 -359
-608 -601 -106 -135 -249 -343 -249 -363 0 -3 -6 -13 -14 -21 -18 -21 -155
-294 -199 -396 -19 -44 -57 -152 -85 -240 -144 -455 -179 -686 -169 -1124 9
-412 51 -628 220 -1136 46 -141 124 -295 280 -555 100 -167 345 -470 540 -669
226 -229 556 -458 899 -625 75 -36 139 -66 142 -66 2 0 33 -13 68 -29 67 -30
119 -49 208 -75 30 -9 105 -31 165 -50 105 -32 156 -45 325 -80 268 -55 922
-55 1205 0 196 38 549 151 750 239 338 148 517 260 791 492 210 178 283 245
350 320 351 389 568 744 712 1168 60 177 132 465 168 675 21 120 30 657 15
832 -21 232 -87 521 -174 758 -65 179 -193 459 -259 570 -95 156 -208 315
-333 465 -103 124 -424 439 -500 492 -27 19 -104 72 -170 118 -197 138 -392
248 -635 358 -41 19 -112 45 -155 57 -39 11 -92 29 -131 46 -18 7 -49 16 -70
20 -22 3 -43 10 -49 14 -5 4 -26 11 -45 14 -19 4 -64 14 -100 21 -36 8 -110
22 -165 30 -55 9 -134 23 -175 30 -188 35 -572 52 -665 30z m675 -404 c648
-101 1230 -401 1715 -886 398 -397 680 -907 799 -1440 55 -247 61 -309 60
-635 0 -267 -3 -322 -22 -440 -153 -926 -688 -1712 -1488 -2186 -376 -222
-798 -356 -1273 -404 -389 -39 -865 24 -1258 166 -795 287 -1450 902 -1786
1674 -410 943 -322 1958 244 2805 418 627 1028 1069 1749 1269 393 110 864
138 1260 77z"/>
<path d="M5217 7089 c-325 -33 -665 -219 -866 -473 -168 -213 -257 -451 -268
-721 -12 -307 63 -562 238 -809 127 -177 296 -318 502 -417 48 -23 87 -45 87
-49 0 -4 -14 -37 -30 -73 -17 -36 -37 -96 -44 -133 l-12 -69 -310 -6 c-324 -7
-326 -7 -509 -62 -337 -103 -505 -219 -640 -442 -73 -123 -112 -315 -94 -472
22 -195 130 -387 282 -500 72 -53 204 -118 262 -129 59 -10 70 -18 103 -76 70
-123 207 -237 339 -283 103 -36 187 -44 458 -45 l240 0 160 -161 c164 -165
195 -189 240 -189 44 0 63 16 235 185 l165 163 295 5 c237 4 307 8 355 22 147
41 286 147 376 285 l51 78 66 16 c210 50 411 226 495 432 41 103 52 162 52
289 -1 142 -23 236 -85 355 -112 214 -299 353 -617 459 -196 65 -247 71 -568
71 l-284 0 -7 48 c-4 26 -20 83 -36 127 -16 44 -32 88 -35 97 -4 13 15 26 88
62 258 123 457 314 587 565 104 201 145 367 145 596 1 210 -37 374 -130 560
-136 273 -402 512 -693 621 -171 64 -402 93 -593 73z m263 -439 c166 -27 295
-93 424 -218 241 -235 293 -597 125 -878 -51 -86 -167 -203 -276 -280 -117
-83 -179 -138 -200 -177 -8 -17 -21 -68 -29 -115 -10 -61 -21 -94 -39 -118
-81 -105 -238 -89 -303 31 -23 42 -20 179 6 267 40 140 121 236 310 371 171
122 230 197 253 324 29 157 -64 331 -218 408 -53 27 -67 30 -168 30 -102 0
-114 -2 -175 -31 -74 -35 -144 -99 -184 -166 -14 -25 -35 -87 -46 -139 -32
-146 -89 -209 -190 -209 -60 0 -108 26 -145 78 -27 39 -30 51 -29 120 1 188
109 403 266 532 84 68 243 145 338 164 91 17 193 19 280 6z m-40 -2202 c93
-48 134 -160 88 -247 -35 -69 -86 -104 -156 -109 -99 -7 -179 51 -200 146 -36
157 125 282 268 210z m-349 -590 c161 -94 332 -96 512 -6 l59 29 590 0 591 -1
56 -25 c31 -14 80 -49 109 -78 98 -95 139 -215 129 -373 -6 -99 -34 -166 -101
-241 -44 -49 -137 -108 -158 -101 -6 2 -17 33 -24 69 -43 208 -238 409 -455
465 -58 15 -162 17 -1044 18 -1082 0 -1031 3 -1169 -64 -160 -77 -294 -249
-330 -422 -12 -57 -15 -63 -37 -60 -35 4 -129 71 -165 119 -93 122 -109 319
-37 470 33 70 109 152 175 188 l53 30 315 6 c173 3 444 5 601 4 l286 -1 44
-26z m1269 -567 c213 -85 284 -350 141 -530 -16 -20 -53 -50 -83 -67 l-53 -29
-1010 0 -1010 0 -55 31 c-70 39 -133 127 -150 211 -38 181 82 368 253 393 29
4 475 7 992 6 779 -1 946 -3 975 -15z"/>
<path d="M4455 3081 c-33 -14 -56 -47 -62 -89 -4 -33 -1 -44 27 -75 l32 -37
895 0 c971 0 935 -2 961 55 22 47 15 84 -22 121 l-34 34 -888 -1 c-489 0 -898
-4 -909 -8z"/>
<path d="M4120 7031 c-23 -44 -1 -91 44 -91 47 0 73 62 40 94 -22 23 -71 20
-84 -3z"/>
<path d="M6494 7025 c-14 -21 -15 -31 -6 -51 7 -13 19 -27 27 -30 27 -11 65 6
76 33 23 61 -61 103 -97 48z"/>
<path d="M3648 6714 c-85 -46 -73 -192 19 -230 133 -56 242 128 132 220 -36
30 -106 35 -151 10z"/>
<path d="M6922 6716 c-79 -43 -82 -171 -5 -221 38 -25 105 -25 140 1 71 51 79
140 18 201 -28 28 -40 33 -81 33 -27 -1 -59 -6 -72 -14z"/>
<path d="M7210 6299 c-70 -14 -147 -56 -169 -93 -35 -56 -25 -107 26 -134 32
-18 46 -15 94 18 59 40 128 42 164 5 14 -13 25 -32 25 -41 0 -9 -34 -49 -75
-88 -41 -39 -79 -84 -85 -99 -23 -63 -4 -156 35 -171 9 -3 36 -6 59 -6 54 0
82 28 91 92 6 41 14 53 70 101 34 31 70 71 79 90 21 46 20 132 -3 182 -20 46
-88 111 -135 130 -44 18 -124 25 -176 14z"/>
<path d="M3299 6207 c-118 -34 -187 -139 -129 -197 29 -29 71 -25 129 11 42
26 57 31 88 26 38 -6 73 -37 73 -64 0 -14 -10 -25 -98 -105 -46 -41 -68 -100
-58 -157 8 -50 36 -74 86 -74 54 0 87 31 96 89 5 38 13 49 55 80 118 87 133
226 35 332 -54 60 -179 87 -277 59z"/>
<path d="M7225 5608 c-53 -29 -71 -98 -41 -157 49 -94 206 -47 206 61 0 78
-97 134 -165 96z"/>
<path d="M3360 5583 c-55 -20 -80 -80 -56 -136 30 -72 120 -86 170 -26 68 80
-15 198 -114 162z"/>
<path d="M2997 5502 c-34 -37 -15 -82 33 -82 34 0 50 17 50 52 0 45 -53 64
-83 30z"/>
<path d="M7635 5500 c-24 -27 -13 -68 22 -76 51 -13 88 41 53 76 -25 25 -52
25 -75 0z"/>
<path d="M2846 5125 c-84 -44 -94 -150 -19 -215 33 -29 41 -32 86 -27 100 9
150 112 99 199 -31 52 -109 72 -166 43z"/>
<path d="M7719 5117 c-60 -41 -77 -113 -39 -174 51 -84 164 -83 221 3 73 111
-70 246 -182 171z"/>
<path d="M3605 5097 c-67 -38 -83 -105 -31 -129 18 -8 32 -5 64 11 65 33 122
24 122 -19 0 -9 -16 -32 -36 -51 -86 -81 -86 -189 0 -189 38 0 66 26 66 61 0
30 7 39 46 67 89 62 76 193 -24 250 -55 31 -152 30 -207 -1z"/>
<path d="M6870 5113 c-8 -3 -28 -15 -43 -26 -84 -58 -30 -162 56 -108 42 26
79 27 101 2 21 -23 13 -43 -31 -77 -57 -43 -82 -133 -47 -168 37 -37 114 -8
114 42 0 13 21 43 50 72 27 27 52 61 56 75 15 61 -25 144 -86 176 -34 19 -134
25 -170 12z"/>
<path d="M3692 4660 c-45 -19 -51 -96 -9 -125 76 -53 163 57 91 114 -29 23
-46 25 -82 11z"/>
<path d="M6905 4645 c-14 -13 -25 -36 -25 -50 0 -33 42 -75 75 -75 30 0 85 49
85 75 0 26 -55 75 -85 75 -14 0 -37 -11 -50 -25z"/>
<path d="M2752 4538 c-19 -19 -15 -66 7 -78 11 -5 24 -10 30 -10 16 0 51 38
51 54 0 37 -61 61 -88 34z"/>
<path d="M7872 4538 c-17 -17 -15 -54 4 -72 21 -21 40 -20 64 4 24 24 25 43 4
64 -18 19 -55 21 -72 4z"/>
<path d="M7613 4163 c-32 -6 -63 -50 -63 -89 0 -82 103 -122 156 -61 62 72 1
169 -93 150z"/>
<path d="M2991 4134 c-28 -36 -27 -86 3 -121 19 -22 32 -28 66 -28 73 0 110
67 75 134 -17 33 -33 41 -85 41 -30 0 -43 -6 -59 -26z"/>
</g>
</svg>
